<?xml version="1.0"?>
<svg xmlns="http://www.w3.org/2000/svg" height="512px" viewBox="0 0 512 512" width="512px" class=""><g><path d="m202 472c5.519531 0 10-4.480469 10-10s-4.480469-10-10-10-10 4.480469-10 10 4.480469 10 10 10zm0 0" data-original="#000000" class="active-path" data-old_color="#4FFF00" fill="#B2C5AA"/><path d="m242 472c5.519531 0 10-4.480469 10-10s-4.480469-10-10-10-10 4.480469-10 10 4.480469 10 10 10zm0 0" data-original="#000000" class="active-path" data-old_color="#4FFF00" fill="#B2C5AA"/><path d="m282 472c5.519531 0 10-4.480469 10-10s-4.480469-10-10-10-10 4.480469-10 10 4.480469 10 10 10zm0 0" data-original="#000000" class="active-path" data-old_color="#4FFF00" fill="#B2C5AA"/><path d="m82 472c5.519531 0 10-4.480469 10-10s-4.480469-10-10-10-10 4.480469-10 10 4.480469 10 10 10zm0 0" data-original="#000000" class="active-path" data-old_color="#4FFF00" fill="#B2C5AA"/><path d="m122 472c5.519531 0 10-4.480469 10-10s-4.480469-10-10-10-10 4.480469-10 10 4.480469 10 10 10zm0 0" data-original="#000000" class="active-path" data-old_color="#4FFF00" fill="#B2C5AA"/><path d="m162 472c5.519531 0 10-4.480469 10-10s-4.480469-10-10-10-10 4.480469-10 10 4.480469 10 10 10zm0 0" data-original="#000000" class="active-path" data-old_color="#4FFF00" fill="#B2C5AA"/><path d="m442 147c-19.574219 0-37.285156 8.085938-50 21.078125v-1.078125c0-5.523438-4.476562-10-10-10h-70v-114c0-23.710938-18.328125-43-40.855469-43-22.902343 0-41.53125 18.605469-41.53125 41.472656v94.34375c-6.285156-3.820312-13.65625-6.019531-21.535156-6.019531-12.648437 0-23.996094 5.675781-31.621094 14.609375-7.621093-8.816406-18.890625-14.40625-31.445312-14.40625-7.878907 0-15.25 2.199219-21.53125 6.019531v-63.261719c0-22.867187-18.632813-41.472656-41.535157-41.472656-22.902343 0-41.535156 18.605469-41.535156 41.472656v94.242188h-30.410156c-5.523438 0-10 4.476562-10 10v80c0 5.523438 4.476562 10 10 10h30.410156v52.175781c0 40.203125 6.640625 48.433594 21.660156 63.222657 1.078126 1.058593 2.175782 2.140624 3.3125 3.28125l-.015624 26.320312h-5.367188c-15.4375 0-28 12.5625-28 28v12h-10c-5.523438 0-10 4.476562-10 10s4.476562 10 10 10h10v12c0 15.4375 12.5625 28 28 28h244c15.4375 0 28-12.5625 28-28v-12h10c5.523438 0 10-4.476562 10-10s-4.476562-10-10-10h-10v-12c0-15.4375-12.5625-28-28-28h-.148438v-26.261719c28.738282-33.3125 68.117188-88.546875 83.386719-110.230469 2.851563-1.761718 4.761719-4.90625 4.761719-8.507812v-1.078125c12.714844 12.992187 30.425781 21.078125 50 21.078125 38.597656 0 70-31.402344 70-70s-31.402344-70-70-70zm-110 30v80h-20v-80zm-292 70h-20v-60h20zm272 193v44c0 4.410156-3.589844 8-8 8h-244c-4.410156 0-8-3.589844-8-8v-44c0-4.410156 3.589844-8 8-8h244c4.410156 0 8 3.589844 8 8zm-226.632812-28 .011718-20h59.621094c5.511719 0 10-4.488281 10-10s-4.488281-10-10-10h-65.019531c-1.375-1.382812-2.679688-2.675781-3.878907-3.855469-11.734374-11.554687-15.691406-15.449219-15.691406-48.96875v-132.175781h12.589844c5.523438 0 10-4.476562 10-10s-4.476562-10-10-10h-12.589844v-59h12.589844c5.523438 0 10-4.476562 10-10s-4.476562-10-10-10h-12.589844v-15.242188c0-11.839843 9.660156-21.472656 21.535156-21.472656 11.871094 0 21.535157 9.632813 21.535157 21.472656v143.710938c0 5.519531 4.476562 10 10 10 5.523437 0 10-4.480469 10-10v-44.996094c0-11.839844 9.660156-21.472656 21.53125-21.472656 11.875 0 21.535156 9.632812 21.535156 21.472656v45.003906c0 5.523438 4.476563 10 10 10s10-4.476562 10-10v-45.207031c0-11.839843 9.660156-21.472656 21.53125-21.472656 11.875 0 21.535156 9.632813 21.535156 21.472656v45.199219c0 5.519531 4.476563 10 10 10 5.523438 0 10-4.480469 10-10v-46.46875h14.386719c5.523438 0 10-4.476562 10-10s-4.476562-10-10-10h-14.386719v-63h14.386719c5.523438 0 10-4.476562 10-10s-4.476562-10-10-10h-14.386719v-25.527344c0-11.839844 9.660157-21.472656 21.53125-21.472656 11.304688 0 20.855469 10.53125 20.855469 23v224c0 5.523438 4.476562 10 10 10h59.808594c-17.078125 23.980469-48.015625 66.480469-72.523438 95h-64.285156c-5.511719 0-10 4.488281-10 10s4.488281 10 10 10h58.851562v20zm286.632812-155h-20v-80h20zm70 10c-27.570312 0-50-22.429688-50-50s22.429688-50 50-50 50 22.429688 50 50-22.429688 50-50 50zm0 0" data-original="#000000" class="active-path" data-old_color="#4FFF00" fill="#B2C5AA"/><path d="m185 372c-5.511719 0-10 4.488281-10 10s4.488281 10 10 10 10-4.488281 10-10-4.488281-10-10-10zm0 0" data-original="#000000" class="active-path" data-old_color="#4FFF00" fill="#B2C5AA"/></g> </svg>
